<?xml version="1.0" encoding="iso-8859-1"?>
<!-- Generator: Adobe Illustrator 19.0.0, SVG Export Plug-In . SVG Version: 6.00 Build 0)  -->
<svg xmlns="http://www.w3.org/2000/svg" xmlns:xlink="http://www.w3.org/1999/xlink" version="1.1" id="Layer_1" x="0px" y="0px" viewBox="0 0 512 512" style="enable-background:new 0 0 512 512;" xml:space="preserve" width="512" height="512">
<g>
	<path d="M512,224.447c0-28.234-23.541-51.205-52.476-51.205H280.899l23.381-61.338c0.231-0.605,0.422-1.226,0.573-1.856   c8.49-35.528-3.669-57.833-15.365-70.289c-14.292-15.221-34.562-22.285-45.899-20.316c-4.382,0.759-8.2,3.424-10.425,7.275   l-80.635,139.551v25.736v265.685v6.117l70.743,28.019c1.758,0.697,3.632,1.054,5.523,1.054H419.8   c28.936,0,52.476-22.97,52.476-51.205c0-10.627-3.336-20.511-9.04-28.703c15.078-9.006,25.161-25.23,25.161-43.707   c0-11.908-4.187-22.878-11.2-31.585c12.649-9.358,20.833-24.175,20.833-40.824c0-11.032-3.593-21.26-9.699-29.628   C502.579,258.063,512,242.308,512,224.447z"/>
	<path d="M122.529,177.005H15c-8.284,0-15,6.716-15,15v265.685c0,8.284,6.716,15,15,15h107.529V177.005z"/>
</g>















</svg>
